<svg width="52" height="41" viewBox="0 0 52 41" fill="none" xmlns="http://www.w3.org/2000/svg">
<g clip-path="url(#clip0_6_95)">
<path d="M9.71848 19.066V1.57083C10.2251 1.33187 10.7531 1.14096 11.2954 1.0006C11.9837 0.810234 12.6814 0.65634 13.3859 0.539563C14.0537 0.423987 14.7299 0.363122 15.4076 0.357574C16.6544 0.357574 17.6652 0.497773 18.4402 0.77817C19.1715 1.02796 19.7807 1.54617 20.1445 2.22801C20.5125 2.91418 20.6958 3.86793 20.6945 5.08928V18.332C20.7041 18.4278 20.6908 18.5246 20.6556 18.6142C20.6205 18.7039 20.5645 18.7839 20.4923 18.8476C20.3568 18.9447 19.997 19.0053 19.4086 19.0296C18.8203 19.0539 17.8317 19.066 16.4387 19.066V6.37331C16.4387 5.41888 16.3639 4.76574 16.2183 4.40985C16.0728 4.05396 15.7412 3.87804 15.2277 3.87804C14.979 3.87934 14.7318 3.9168 14.4938 3.98926C14.2564 4.05942 14.0333 4.17101 13.8347 4.31886V18.332C13.8448 18.4262 13.8334 18.5215 13.8016 18.6108C13.7697 18.7001 13.7182 18.781 13.6507 18.8476C13.5267 18.9447 13.1783 19.0053 12.6055 19.0296C12.0327 19.0539 11.0703 19.066 9.71848 19.066Z" fill="#C6A609"/>
<path d="M28.6439 19.434C27.7767 19.4483 26.9124 19.331 26.0804 19.0862C25.3388 18.8498 24.6981 18.3713 24.2608 17.7274C23.7837 17.0533 23.4292 16.0875 23.1974 14.8297C22.9655 13.572 22.8483 11.9159 22.8456 9.86142C22.8456 6.5344 23.3773 4.11935 24.4407 2.61626C25.5042 1.11316 27.0029 0.360271 28.9371 0.357574C30.2579 0.357574 31.3402 0.620447 32.184 1.14619C33.0277 1.67194 33.6511 2.61558 34.0541 3.97712C34.4584 5.33328 34.6606 7.24685 34.6606 9.71785C34.6606 13.2646 34.1538 15.7713 33.1402 17.238C32.1267 18.7047 30.6279 19.4367 28.6439 19.434ZM28.7531 16.0227C28.8866 16.0161 29.017 15.9796 29.1346 15.916C29.2521 15.8523 29.3539 15.763 29.4324 15.6547C29.6399 15.4094 29.8111 14.8472 29.9459 13.9683C30.1072 12.592 30.1747 11.2064 30.1481 9.82098C30.1481 8.0685 30.1117 6.75414 30.0389 5.87789C29.9661 5.00165 29.8313 4.43344 29.6346 4.17327C29.5388 4.04098 29.4116 3.9347 29.2643 3.86408C29.1171 3.79346 28.9546 3.76072 28.7915 3.76885C28.6438 3.77722 28.5002 3.82065 28.3725 3.89555C28.2449 3.97044 28.137 4.07465 28.0576 4.19956C27.8366 4.4813 27.6654 5.05558 27.5441 5.92238C27.3987 7.21929 27.3372 8.52424 27.3601 9.82907C27.3601 11.2486 27.3911 12.3803 27.4531 13.2242C27.4808 13.8481 27.5661 14.4682 27.7078 15.0764C27.819 15.4667 27.9646 15.7255 28.1486 15.8468C28.3281 15.9642 28.5386 16.0255 28.7531 16.0227Z" fill="#C6A609"/>
<path d="M7.0235 40.205C6.79906 40.2164 6.57534 40.1715 6.37267 40.0744C6.17 39.9772 5.99481 39.831 5.86302 39.6489C5.57703 39.2516 5.37103 38.8025 5.25651 38.3265C5.0759 37.5581 4.87372 36.6246 4.64998 35.5259C4.42625 34.4272 4.1897 33.2504 3.94036 31.9953C3.69775 30.7436 1.53652 14.1564 1.29391 12.929C1.0513 11.7016 0.234521 8.44598 3.21772e-07 7.23273C-0.0262822 6.95166 0.0424567 6.75956 0.202174 6.65845C0.36189 6.55735 0.796563 6.49062 1.488 6.46635C2.17943 6.44209 3.27723 6.42389 4.76118 6.42389L5.49103 10.8543C5.61772 11.7737 5.73229 12.7645 5.83472 13.8268C5.93783 14.8884 7.93934 31.231 8.00202 32.1652C8.06469 33.0994 8.13747 34.1529 8.2143 35.3297H8.5216C8.54586 34.9455 8.57215 34.442 8.59641 33.8152C8.62067 33.1883 8.66717 32.5109 8.73186 31.781C8.79656 31.051 8.8653 30.3817 8.93404 29.7589L9.96916 22.0486C10.0217 21.6907 10.1228 21.4602 10.2765 21.3571C10.4301 21.2539 10.788 21.2034 11.35 21.2034H12.5024C12.834 21.2034 12.9613 21.2944 12.8845 21.4723C12.781 21.6968 12.6528 21.9091 12.5024 22.1052C12.3567 22.2779 12.2517 22.4811 12.1951 22.6997V24.825C12.1681 25.8481 12.1358 26.7817 12.098 27.6256C12.0603 28.4694 12.0091 29.3834 11.9444 30.3675C11.8824 31.353 11.815 32.3182 11.7422 33.2632C11.6694 34.2082 11.567 35.0399 11.4349 35.7584L10.7455 40.017L8.65504 40.1504C8.07817 40.1882 7.53432 40.2064 7.0235 40.205ZM15.0417 40.205C14.5696 40.1954 14.1101 40.0508 13.7175 39.7885C13.2707 39.5074 12.9815 39.0079 12.8542 38.2921L12.4721 35.7605C12.3683 35.0446 12.2787 34.2129 12.2032 33.2652C12.1264 32.3209 12.0617 31.3604 12.001 30.3898C11.9404 29.4192 11.912 28.5153 11.8858 27.6842C11.8595 26.8531 11.8352 25.927 11.8089 24.9018L11.2327 22.7159C11.2275 22.3977 11.2967 22.0826 11.4349 21.7959C11.5886 21.4117 11.7928 21.2196 12.0414 21.2196H14.1966L15.5006 29.775C15.5944 30.2889 15.6619 30.8073 15.7028 31.328C15.7533 31.9549 15.7998 32.5756 15.8383 33.1883C15.8767 33.801 15.9211 34.5189 15.9717 35.3378H16.279C16.3302 34.4414 16.3875 33.4505 16.4508 32.3654C16.5142 31.2802 16.591 30.2017 16.6813 29.13C16.7703 28.0515 16.866 27.0803 16.9684 26.2162L17.5446 21.6887C17.5677 21.463 17.6693 21.2526 17.8317 21.0942C17.9665 20.9796 18.325 20.9122 18.9072 20.892C19.4895 20.8718 20.4161 20.859 21.6871 20.8536C21.4297 22.2353 21.1931 23.4951 20.9775 24.6329C20.7618 25.7706 20.5253 27.0236 20.2679 28.3919C20.0118 29.7616 19.7496 31.1305 19.4814 32.4988C19.2132 33.8671 18.9639 35.1201 18.7334 36.2579C18.4962 37.3822 18.3014 38.2894 18.1491 38.9796C17.9968 39.6698 17.8944 40.0156 17.8418 40.017C16.9142 40.1473 15.9784 40.2102 15.0417 40.205Z" fill="#C6A609"/>
<path d="M27.6977 40.3951C27.0084 40.3984 26.3204 40.3341 25.6437 40.203C24.9592 40.0821 24.3215 39.7746 23.8006 39.3144C23.2798 38.8541 22.8961 38.2589 22.6919 37.5945C22.3968 36.8018 22.2492 35.7409 22.2492 34.4117C22.2217 33.3316 22.3449 32.2528 22.6151 31.2067C22.7974 30.495 23.1389 29.834 23.6138 29.2736C23.9942 28.841 24.4826 28.5173 25.0291 28.3353C25.5559 28.1674 26.1057 28.0828 26.6586 28.0846C27.057 28.0953 27.4543 28.1339 27.8474 28.1998C28.2995 28.2562 28.7326 28.416 29.113 28.6669V26.0119C29.1243 25.7343 29.0725 25.4577 28.9613 25.2031C28.8551 24.9953 28.6779 24.8325 28.462 24.7441C28.1563 24.6282 27.8302 24.5759 27.5037 24.5904C26.7132 24.599 25.925 24.6775 25.1483 24.825C24.3854 24.9526 23.6347 25.1447 22.9042 25.3992C22.6788 24.9796 22.5231 24.5262 22.4433 24.0566C22.3742 23.6767 22.3356 23.292 22.328 22.906C22.3321 22.6509 22.3778 22.3982 22.4635 22.1578C22.5302 21.921 22.6722 21.7124 22.8678 21.5633C23.1495 21.3584 23.7891 21.1218 24.7865 20.8536C26.0295 20.5565 27.3056 20.4206 28.5833 20.4491C30.3476 20.4491 31.5943 20.7943 32.3235 21.4845C33.0526 22.1747 33.4166 23.3879 33.4152 25.1242V31.417C33.4152 32.9511 33.4024 34.3895 33.3768 35.7321C33.3512 37.0748 33.3 38.2207 33.2231 39.1697C32.4829 39.5934 31.6805 39.8977 30.8456 40.0716C29.8117 40.2971 28.7558 40.4056 27.6977 40.3951ZM28.003 36.8665C28.1989 36.8637 28.3932 36.831 28.5792 36.7695C28.7582 36.7235 28.9185 36.6232 29.0382 36.4823C29.0644 36.2013 29.0826 35.7726 29.0968 35.1983C29.1109 34.624 29.115 34.0012 29.115 33.336V31.5343C28.9841 31.4044 28.8171 31.317 28.6358 31.2835C28.4656 31.2477 28.2922 31.2288 28.1183 31.2269C27.9247 31.2242 27.7336 31.2701 27.5623 31.3604C27.3756 31.4739 27.2281 31.6418 27.1398 31.8416C27.0043 32.1392 26.9143 32.4555 26.8729 32.7799C26.801 33.2821 26.7686 33.7892 26.7758 34.2965C26.7725 34.6869 26.7921 35.0771 26.8345 35.4652C26.8617 35.7421 26.9256 36.0141 27.0245 36.2741C27.0951 36.4672 27.231 36.6296 27.4086 36.7331C27.5926 36.8285 27.7979 36.8751 28.0051 36.8686L28.003 36.8665Z" fill="#C6A609"/>
<path d="M37.7861 19.1065C37.5008 19.1194 37.2162 19.0673 36.9539 18.9542C36.6915 18.841 36.4583 18.6698 36.2719 18.4533C35.8999 18.0192 35.7145 17.201 35.7159 15.9985C35.7159 15.1034 35.9073 14.3808 36.2901 13.8308C36.6728 13.2808 37.2612 13.0058 38.055 13.0058C38.8476 13.0058 39.3833 13.208 39.6724 13.6124C39.9615 14.0168 40.0929 14.7509 40.0929 15.7983C40.0929 16.8458 39.8908 17.6182 39.4985 18.2147C39.3163 18.5004 39.0622 18.7332 38.7616 18.8898C38.4611 19.0463 38.1247 19.121 37.7861 19.1065ZM35.7159 40.0149V22.7119C35.7159 22.0729 35.8372 21.6253 36.0798 21.3692C36.3224 21.1131 36.7571 20.9594 37.3838 20.9081C38.0106 20.8583 38.9116 20.8327 40.0869 20.8313V39.2465C40.0974 39.3432 40.0876 39.441 40.058 39.5337C40.0284 39.6263 39.9797 39.7118 39.915 39.7844C39.8005 39.8855 39.4359 39.9529 38.8213 39.9866C38.2067 40.0203 37.1715 40.0298 35.7159 40.0149Z" fill="#C6A609"/>
<path d="M47.9899 40.3951C46.8644 40.3951 46.014 40.1841 45.4384 39.7622C44.8402 39.3039 44.4308 38.6419 44.2881 37.9018C44.0819 36.9439 43.9856 35.9657 44.001 34.986V16.1643H41.6982C41.6982 15.0643 41.711 14.2554 41.7367 13.7378C41.7629 13.2262 41.8398 12.8926 41.9671 12.7409C42.0447 12.6597 42.1394 12.5969 42.2443 12.5571C42.3493 12.5172 42.4618 12.5012 42.5737 12.5104H43.9889V7.7625C43.9889 7.30416 44.1102 6.98467 44.3528 6.80403C44.5954 6.62339 45.0233 6.51487 45.6366 6.47847C46.2512 6.43938 47.1333 6.4205 48.283 6.42185V12.5205H51.4288C51.4288 13.6205 51.416 14.426 51.3904 14.9369C51.3662 15.4485 51.2954 15.7801 51.1883 15.9338C51.1146 16.0167 51.0223 16.0809 50.9189 16.1209C50.8156 16.161 50.7041 16.1759 50.5939 16.1643H48.2952V34.9112C48.2952 35.1942 48.3093 35.4814 48.3336 35.7746C48.3455 36.0275 48.4251 36.2726 48.564 36.4843C48.6422 36.5796 48.7428 36.6541 48.8567 36.701C48.9707 36.7479 49.0945 36.7659 49.2171 36.7533C49.5528 36.7558 49.8875 36.7171 50.2138 36.638C50.5591 36.5469 50.8933 36.418 51.2105 36.2538C51.2631 36.5106 51.3197 36.8099 51.3844 37.1557C51.4508 37.5423 51.4826 37.9342 51.4794 38.3265C51.4794 38.9331 51.2873 39.3941 50.9052 39.6873C50.4996 39.9905 50.0252 40.1885 49.5244 40.2636C49.0173 40.3493 48.5041 40.3932 47.9899 40.3951Z" fill="#C6A609"/>
</g>
<defs>
<clipPath id="clip0_6_95">
<rect width="51.4794" height="40.0395" fill="white" transform="translate(0 0.357574)"/>
</clipPath>
</defs>
</svg>
